<svg width="135" height="19" viewBox="0 0 135 19" fill="none" xmlns="http://www.w3.org/2000/svg">
<path d="M44.824 4.512V16H43.12V10.824H37.128V16H35.416V4.512H37.128V9.584H43.12V4.512H44.824ZM50.71 7.744C51.3073 7.744 51.846 7.84267 52.326 8.04C52.8113 8.232 53.222 8.512 53.558 8.88C53.8993 9.24267 54.1607 9.68267 54.342 10.2C54.5233 10.712 54.614 11.288 54.614 11.928C54.614 12.568 54.5233 13.1467 54.342 13.664C54.1607 14.1813 53.8993 14.6213 53.558 14.984C53.222 15.3467 52.8113 15.6267 52.326 15.824C51.846 16.016 51.3073 16.112 50.71 16.112C50.1073 16.112 49.5633 16.016 49.078 15.824C48.598 15.6267 48.1873 15.3467 47.846 14.984C47.5047 14.6213 47.2407 14.1813 47.054 13.664C46.8727 13.1467 46.782 12.568 46.782 11.928C46.782 11.288 46.8727 10.712 47.054 10.2C47.2407 9.68267 47.5047 9.24267 47.846 8.88C48.1873 8.512 48.598 8.232 49.078 8.04C49.5633 7.84267 50.1073 7.744 50.71 7.744ZM50.71 14.896C51.478 14.896 52.0513 14.6373 52.43 14.12C52.8087 13.6027 52.998 12.8747 52.998 11.936C52.998 10.9973 52.8087 10.2693 52.43 9.752C52.0513 9.22933 51.478 8.968 50.71 8.968C49.9313 8.968 49.35 9.22933 48.966 9.752C48.5873 10.2693 48.398 10.9973 48.398 11.936C48.398 12.8747 48.5873 13.6027 48.966 14.12C49.35 14.6373 49.9313 14.896 50.71 14.896ZM59.6734 14.904C60.1747 14.904 60.572 14.7867 60.8654 14.552C61.1587 14.312 61.3054 13.9893 61.3054 13.584C61.3054 13.408 61.2787 13.2453 61.2254 13.096C61.172 12.9413 61.0814 12.808 60.9534 12.696C60.8254 12.584 60.6574 12.4987 60.4494 12.44C60.2414 12.376 59.9854 12.344 59.6814 12.344H57.9934V14.904H59.6734ZM57.9934 8.912V11.352H59.4894C59.7134 11.352 59.9187 11.32 60.1054 11.256C60.2974 11.192 60.46 11.104 60.5934 10.992C60.732 10.8747 60.8387 10.736 60.9134 10.576C60.9934 10.4107 61.0334 10.232 61.0334 10.04C61.0334 9.896 61.0067 9.75733 60.9534 9.624C60.9054 9.49067 60.82 9.37067 60.6974 9.264C60.58 9.15733 60.4227 9.072 60.2254 9.008C60.028 8.944 59.7827 8.912 59.4894 8.912H57.9934ZM59.5374 7.872C60.0387 7.872 60.4707 7.92267 60.8334 8.024C61.196 8.12 61.4947 8.256 61.7294 8.432C61.964 8.608 62.1347 8.81333 62.2414 9.048C62.3534 9.28267 62.4094 9.536 62.4094 9.808C62.4094 9.984 62.3854 10.168 62.3374 10.36C62.2894 10.552 62.2067 10.736 62.0894 10.912C61.972 11.0827 61.812 11.24 61.6094 11.384C61.412 11.528 61.1587 11.64 60.8494 11.72C61.4467 11.8267 61.9107 12.04 62.2414 12.36C62.5774 12.68 62.7454 13.104 62.7454 13.632C62.7454 14.032 62.6627 14.3813 62.4974 14.68C62.3374 14.9733 62.1187 15.2187 61.8414 15.416C61.564 15.6133 61.2387 15.76 60.8654 15.856C60.492 15.952 60.0974 16 59.6814 16H56.5054V7.872H59.5374ZM68.9921 12.392C68.3575 12.4133 67.8188 12.464 67.3761 12.544C66.9335 12.6187 66.5735 12.72 66.2961 12.848C66.0188 12.976 65.8188 13.128 65.6961 13.304C65.5735 13.4747 65.5121 13.6667 65.5121 13.88C65.5121 14.0827 65.5441 14.2587 65.6081 14.408C65.6775 14.552 65.7681 14.672 65.8801 14.768C65.9975 14.8587 66.1335 14.9253 66.2881 14.968C66.4428 15.0107 66.6108 15.032 66.7921 15.032C67.0321 15.032 67.2508 15.008 67.4481 14.96C67.6508 14.912 67.8401 14.8453 68.0161 14.76C68.1921 14.6693 68.3601 14.56 68.5201 14.432C68.6801 14.304 68.8375 14.1573 68.9921 13.992V12.392ZM64.4161 9.008C64.8695 8.576 65.3601 8.25333 65.8881 8.04C66.4215 7.82667 67.0055 7.72 67.6401 7.72C68.1041 7.72 68.5148 7.79733 68.8721 7.952C69.2295 8.10133 69.5308 8.312 69.7761 8.584C70.0215 8.856 70.2055 9.18133 70.3281 9.56C70.4561 9.93867 70.5201 10.3573 70.5201 10.816V16H69.8241C69.6695 16 69.5521 15.976 69.4721 15.928C69.3921 15.8747 69.3281 15.7787 69.2801 15.64L69.1121 14.928C68.9041 15.12 68.6988 15.2907 68.4961 15.44C68.2935 15.584 68.0801 15.7093 67.8561 15.816C67.6375 15.9173 67.4028 15.9947 67.1521 16.048C66.9015 16.1013 66.6241 16.128 66.3201 16.128C66.0001 16.128 65.6988 16.0853 65.4161 16C65.1388 15.9093 64.8961 15.7733 64.6881 15.592C64.4801 15.4107 64.3148 15.184 64.1921 14.912C64.0748 14.64 64.0161 14.3227 64.0161 13.96C64.0161 13.64 64.1015 13.3333 64.2721 13.04C64.4481 12.7413 64.7308 12.4747 65.1201 12.24C65.5148 12.0053 66.0268 11.8133 66.6561 11.664C67.2908 11.5147 68.0695 11.4293 68.9921 11.408V10.816C68.9921 10.2027 68.8615 9.744 68.6001 9.44C68.3388 9.136 67.9548 8.984 67.4481 8.984C67.1068 8.984 66.8188 9.02667 66.5841 9.112C66.3548 9.19733 66.1548 9.29333 65.9841 9.4C65.8188 9.50133 65.6721 9.59467 65.5441 9.68C65.4215 9.76533 65.2935 9.808 65.1601 9.808C65.0535 9.808 64.9601 9.77867 64.8801 9.72C64.8055 9.66133 64.7441 9.592 64.6961 9.512L64.4161 9.008ZM77.0225 11.624V8.912H75.7345C75.4412 8.912 75.1958 8.95467 74.9985 9.04C74.8012 9.12 74.6412 9.22667 74.5185 9.36C74.4012 9.49333 74.3158 9.64 74.2625 9.8C74.2145 9.96 74.1905 10.12 74.1905 10.28C74.1905 10.7013 74.3425 11.032 74.6465 11.272C74.9505 11.5067 75.3638 11.624 75.8865 11.624H77.0225ZM78.5105 7.872V16H77.0225V12.616H76.4705C76.3158 12.616 76.1878 12.6293 76.0865 12.656C75.9852 12.6773 75.8972 12.712 75.8225 12.76C75.7532 12.808 75.6918 12.8667 75.6385 12.936C75.5852 13.0053 75.5318 13.0827 75.4785 13.168L73.8225 15.456C73.7692 15.5467 73.7132 15.6267 73.6545 15.696C73.5958 15.76 73.5292 15.816 73.4545 15.864C73.3798 15.9067 73.2918 15.9413 73.1905 15.968C73.0892 15.9893 72.9692 16 72.8305 16H71.7505L74.0305 12.984C74.2278 12.648 74.4972 12.4213 74.8385 12.304C74.4332 12.2507 74.0892 12.1547 73.8065 12.016C73.5292 11.872 73.3025 11.7067 73.1265 11.52C72.9505 11.328 72.8225 11.12 72.7425 10.896C72.6625 10.6667 72.6225 10.4347 72.6225 10.2C72.6225 9.912 72.6785 9.62933 72.7905 9.352C72.9025 9.07467 73.0812 8.82667 73.3265 8.608C73.5718 8.38933 73.8892 8.21333 74.2785 8.08C74.6678 7.94133 75.1372 7.872 75.6865 7.872H78.5105ZM84.5309 8.72C84.8349 8.432 85.2082 8.19733 85.6509 8.016C86.0935 7.83467 86.6242 7.744 87.2429 7.744C87.7389 7.744 88.1762 7.80533 88.5549 7.928C88.9335 8.04533 89.2509 8.20533 89.5069 8.408C89.7682 8.60533 89.9629 8.832 90.0909 9.088C90.2242 9.344 90.2909 9.61067 90.2909 9.888C90.2909 10.048 90.2642 10.216 90.2109 10.392C90.1629 10.5627 90.0829 10.728 89.9709 10.888C89.8589 11.048 89.7095 11.1973 89.5229 11.336C89.3415 11.4693 89.1149 11.5813 88.8429 11.672C89.3442 11.8267 89.7415 12.072 90.0349 12.408C90.3282 12.744 90.4749 13.1627 90.4749 13.664C90.4749 14.0427 90.3869 14.384 90.2109 14.688C90.0402 14.992 89.8082 15.2507 89.5149 15.464C89.2215 15.672 88.8829 15.832 88.4989 15.944C88.1149 16.056 87.7149 16.112 87.2989 16.112C87.0429 16.112 86.7789 16.088 86.5069 16.04C86.2402 15.992 85.9762 15.9173 85.7149 15.816C85.4535 15.7147 85.2055 15.584 84.9709 15.424C84.7362 15.264 84.5255 15.0693 84.3389 14.84L84.7869 14.264C84.8562 14.168 84.9549 14.12 85.0829 14.12C85.1842 14.12 85.2882 14.1627 85.3949 14.248C85.5069 14.328 85.6402 14.416 85.7949 14.512C85.9549 14.608 86.1442 14.6987 86.3629 14.784C86.5869 14.864 86.8642 14.904 87.1949 14.904C87.4775 14.904 87.7282 14.8693 87.9469 14.8C88.1709 14.7307 88.3575 14.6347 88.5069 14.512C88.6615 14.3893 88.7789 14.2453 88.8589 14.08C88.9389 13.9147 88.9789 13.7333 88.9789 13.536C88.9789 13.152 88.8215 12.8453 88.5069 12.616C88.1922 12.3867 87.7069 12.272 87.0509 12.272H86.1309V11.232H87.0509C87.6269 11.232 88.0749 11.1253 88.3949 10.912C88.7149 10.6933 88.8749 10.4133 88.8749 10.072C88.8749 9.92267 88.8402 9.78133 88.7709 9.648C88.7015 9.50933 88.5949 9.38933 88.4509 9.288C88.3122 9.18133 88.1362 9.09867 87.9229 9.04C87.7149 8.98133 87.4722 8.952 87.1949 8.952C86.8855 8.952 86.6242 8.984 86.4109 9.048C86.1975 9.10667 86.0162 9.17333 85.8669 9.248C85.7175 9.32267 85.5922 9.392 85.4909 9.456C85.3949 9.51467 85.3122 9.544 85.2429 9.544C85.1682 9.544 85.1042 9.53067 85.0509 9.504C85.0029 9.472 84.9495 9.41067 84.8909 9.32L84.5309 8.72ZM96.7484 12.392C96.1137 12.4133 95.575 12.464 95.1324 12.544C94.6897 12.6187 94.3297 12.72 94.0524 12.848C93.775 12.976 93.575 13.128 93.4524 13.304C93.3297 13.4747 93.2684 13.6667 93.2684 13.88C93.2684 14.0827 93.3004 14.2587 93.3644 14.408C93.4337 14.552 93.5244 14.672 93.6364 14.768C93.7537 14.8587 93.8897 14.9253 94.0444 14.968C94.199 15.0107 94.367 15.032 94.5484 15.032C94.7884 15.032 95.007 15.008 95.2044 14.96C95.407 14.912 95.5964 14.8453 95.7724 14.76C95.9484 14.6693 96.1164 14.56 96.2764 14.432C96.4364 14.304 96.5937 14.1573 96.7484 13.992V12.392ZM92.1724 9.008C92.6257 8.576 93.1164 8.25333 93.6444 8.04C94.1777 7.82667 94.7617 7.72 95.3964 7.72C95.8604 7.72 96.271 7.79733 96.6284 7.952C96.9857 8.10133 97.287 8.312 97.5324 8.584C97.7777 8.856 97.9617 9.18133 98.0844 9.56C98.2124 9.93867 98.2764 10.3573 98.2764 10.816V16H97.5804C97.4257 16 97.3084 15.976 97.2284 15.928C97.1484 15.8747 97.0844 15.7787 97.0364 15.64L96.8684 14.928C96.6604 15.12 96.455 15.2907 96.2524 15.44C96.0497 15.584 95.8364 15.7093 95.6124 15.816C95.3937 15.9173 95.159 15.9947 94.9084 16.048C94.6577 16.1013 94.3804 16.128 94.0764 16.128C93.7564 16.128 93.455 16.0853 93.1724 16C92.895 15.9093 92.6524 15.7733 92.4444 15.592C92.2364 15.4107 92.071 15.184 91.9484 14.912C91.831 14.64 91.7724 14.3227 91.7724 13.96C91.7724 13.64 91.8577 13.3333 92.0284 13.04C92.2044 12.7413 92.487 12.4747 92.8764 12.24C93.271 12.0053 93.783 11.8133 94.4124 11.664C95.047 11.5147 95.8257 11.4293 96.7484 11.408V10.816C96.7484 10.2027 96.6177 9.744 96.3564 9.44C96.095 9.136 95.711 8.984 95.2044 8.984C94.863 8.984 94.575 9.02667 94.3404 9.112C94.111 9.19733 93.911 9.29333 93.7404 9.4C93.575 9.50133 93.4284 9.59467 93.3004 9.68C93.1777 9.76533 93.0497 9.808 92.9164 9.808C92.8097 9.808 92.7164 9.77867 92.6364 9.72C92.5617 9.66133 92.5004 9.592 92.4524 9.512L92.1724 9.008ZM106.067 14.864V9.096H103.635C103.581 9.88533 103.509 10.5893 103.419 11.208C103.328 11.8267 103.221 12.3707 103.099 12.84C102.981 13.304 102.851 13.704 102.707 14.04C102.563 14.3707 102.411 14.6453 102.251 14.864H106.067ZM109.067 14.816V18.296C109.067 18.4453 109.024 18.5627 108.939 18.648C108.859 18.7333 108.752 18.776 108.619 18.776H107.651V16H101.011V18.328C101.011 18.4453 100.976 18.5493 100.907 18.64C100.837 18.7307 100.728 18.776 100.579 18.776H99.5867V14.864H99.8507C100.037 14.864 100.221 14.8347 100.403 14.776C100.584 14.7173 100.757 14.6 100.923 14.424C101.093 14.248 101.253 14 101.403 13.68C101.552 13.36 101.688 12.9413 101.811 12.424C101.933 11.9067 102.04 11.2773 102.131 10.536C102.221 9.78933 102.293 8.90133 102.347 7.872H107.579V14.816H109.067ZM114.986 12.392C114.351 12.4133 113.813 12.464 113.37 12.544C112.927 12.6187 112.567 12.72 112.29 12.848C112.013 12.976 111.813 13.128 111.69 13.304C111.567 13.4747 111.506 13.6667 111.506 13.88C111.506 14.0827 111.538 14.2587 111.602 14.408C111.671 14.552 111.762 14.672 111.874 14.768C111.991 14.8587 112.127 14.9253 112.282 14.968C112.437 15.0107 112.605 15.032 112.786 15.032C113.026 15.032 113.245 15.008 113.442 14.96C113.645 14.912 113.834 14.8453 114.01 14.76C114.186 14.6693 114.354 14.56 114.514 14.432C114.674 14.304 114.831 14.1573 114.986 13.992V12.392ZM110.41 9.008C110.863 8.576 111.354 8.25333 111.882 8.04C112.415 7.82667 112.999 7.72 113.634 7.72C114.098 7.72 114.509 7.79733 114.866 7.952C115.223 8.10133 115.525 8.312 115.77 8.584C116.015 8.856 116.199 9.18133 116.322 9.56C116.45 9.93867 116.514 10.3573 116.514 10.816V16H115.818C115.663 16 115.546 15.976 115.466 15.928C115.386 15.8747 115.322 15.7787 115.274 15.64L115.106 14.928C114.898 15.12 114.693 15.2907 114.49 15.44C114.287 15.584 114.074 15.7093 113.85 15.816C113.631 15.9173 113.397 15.9947 113.146 16.048C112.895 16.1013 112.618 16.128 112.314 16.128C111.994 16.128 111.693 16.0853 111.41 16C111.133 15.9093 110.89 15.7733 110.682 15.592C110.474 15.4107 110.309 15.184 110.186 14.912C110.069 14.64 110.01 14.3227 110.01 13.96C110.01 13.64 110.095 13.3333 110.266 13.04C110.442 12.7413 110.725 12.4747 111.114 12.24C111.509 12.0053 112.021 11.8133 112.65 11.664C113.285 11.5147 114.063 11.4293 114.986 11.408V10.816C114.986 10.2027 114.855 9.744 114.594 9.44C114.333 9.136 113.949 8.984 113.442 8.984C113.101 8.984 112.813 9.02667 112.578 9.112C112.349 9.19733 112.149 9.29333 111.978 9.4C111.813 9.50133 111.666 9.59467 111.538 9.68C111.415 9.76533 111.287 9.808 111.154 9.808C111.047 9.808 110.954 9.77867 110.874 9.72C110.799 9.66133 110.738 9.592 110.69 9.512L110.41 9.008ZM124.848 7.872V16H123.288V12.616C122.59 12.7973 121.936 12.9093 121.328 12.952C120.72 12.9893 120.19 12.936 119.736 12.792C119.283 12.6427 118.926 12.3893 118.664 12.032C118.408 11.6693 118.28 11.1787 118.28 10.56V7.872H119.848V10.32C119.848 10.6933 119.92 10.992 120.064 11.216C120.208 11.4347 120.424 11.5893 120.712 11.68C121 11.7653 121.358 11.792 121.784 11.76C122.216 11.7227 122.718 11.64 123.288 11.512V7.872H124.848ZM131.552 12.392C130.917 12.4133 130.378 12.464 129.936 12.544C129.493 12.6187 129.133 12.72 128.856 12.848C128.578 12.976 128.378 13.128 128.256 13.304C128.133 13.4747 128.072 13.6667 128.072 13.88C128.072 14.0827 128.104 14.2587 128.168 14.408C128.237 14.552 128.328 14.672 128.44 14.768C128.557 14.8587 128.693 14.9253 128.848 14.968C129.002 15.0107 129.17 15.032 129.352 15.032C129.592 15.032 129.81 15.008 130.008 14.96C130.21 14.912 130.4 14.8453 130.576 14.76C130.752 14.6693 130.92 14.56 131.08 14.432C131.24 14.304 131.397 14.1573 131.552 13.992V12.392ZM126.976 9.008C127.429 8.576 127.92 8.25333 128.448 8.04C128.981 7.82667 129.565 7.72 130.2 7.72C130.664 7.72 131.074 7.79733 131.432 7.952C131.789 8.10133 132.09 8.312 132.336 8.584C132.581 8.856 132.765 9.18133 132.888 9.56C133.016 9.93867 133.08 10.3573 133.08 10.816V16H132.384C132.229 16 132.112 15.976 132.032 15.928C131.952 15.8747 131.888 15.7787 131.84 15.64L131.672 14.928C131.464 15.12 131.258 15.2907 131.056 15.44C130.853 15.584 130.64 15.7093 130.416 15.816C130.197 15.9173 129.962 15.9947 129.712 16.048C129.461 16.1013 129.184 16.128 128.88 16.128C128.56 16.128 128.258 16.0853 127.976 16C127.698 15.9093 127.456 15.7733 127.248 15.592C127.04 15.4107 126.874 15.184 126.752 14.912C126.634 14.64 126.576 14.3227 126.576 13.96C126.576 13.64 126.661 13.3333 126.832 13.04C127.008 12.7413 127.29 12.4747 127.68 12.24C128.074 12.0053 128.586 11.8133 129.216 11.664C129.85 11.5147 130.629 11.4293 131.552 11.408V10.816C131.552 10.2027 131.421 9.744 131.16 9.44C130.898 9.136 130.514 8.984 130.008 8.984C129.666 8.984 129.378 9.02667 129.144 9.112C128.914 9.19733 128.714 9.29333 128.544 9.4C128.378 9.50133 128.232 9.59467 128.104 9.68C127.981 9.76533 127.853 9.808 127.72 9.808C127.613 9.808 127.52 9.77867 127.44 9.72C127.365 9.66133 127.304 9.592 127.256 9.512L126.976 9.008Z" fill="#B4B4B4"/>
<path d="M8 3V17" stroke="#B4B4B4" stroke-width="2" stroke-linecap="round" stroke-linejoin="round"/>
<path d="M1 10H15" stroke="#B4B4B4" stroke-width="2" stroke-linecap="round" stroke-linejoin="round"/>
</svg>
